<svg xmlns="http://www.w3.org/2000/svg" viewBox="0 0 64 64">
  <defs>
    <linearGradient id="bg" x1="10" y1="8" x2="56" y2="58" gradientUnits="userSpaceOnUse">
      <stop offset="0" stop-color="#0f1726" />
      <stop offset="1" stop-color="#04070d" />
    </linearGradient>
    <linearGradient id="edge" x1="8" y1="8" x2="56" y2="56" gradientUnits="userSpaceOnUse">
      <stop offset="0" stop-color="#ff5b66" />
      <stop offset=".52" stop-color="#ff8842" />
      <stop offset="1" stop-color="#46b8ff" />
    </linearGradient>
    <linearGradient id="z" x1="32" y1="18" x2="45" y2="46" gradientUnits="userSpaceOnUse">
      <stop offset="0" stop-color="#ff6a72" />
      <stop offset="1" stop-color="#58c4ff" />
    </linearGradient>
  </defs>

  <path
    d="M16 6h28l14 14v28c0 5.523-4.477 10-10 10H16C10.477 58 6 53.523 6 48V16C6 10.477 10.477 6 16 6Z"
    fill="url(#bg)"
  />
  <path
    d="M16 8h27.172L56 20.828V48a8 8 0 0 1-8 8H16a8 8 0 0 1-8-8V16a8 8 0 0 1 8-8Z"
    fill="none"
    stroke="url(#edge)"
    stroke-width="2.5"
    stroke-linejoin="round"
  />
  <path d="M19 15h7v13h10V15h7v34h-7V35H26v14h-7Z" fill="#f4f7fb" />
  <path
    d="M31 18h15L32 32l14 14H31"
    fill="none"
    stroke="url(#z)"
    stroke-width="5"
    stroke-linecap="round"
    stroke-linejoin="round"
  />
  <path d="M43 8v11h11" fill="none" stroke="#ffb089" stroke-width="2" stroke-linecap="round" stroke-linejoin="round" />
</svg>
